<svg xmlns="http://www.w3.org/2000/svg" viewBox="0 0 1882.5 933.49"><defs><style>.cls-1{fill:#54565a;}.cls-2{fill:#ea0029;}</style></defs><title>Recurso 1</title><g id="Capa_2" data-name="Capa 2"><g id="Capa_1-2" data-name="Capa 1"><path class="cls-1" d="M1476.59,578.24c-2.58,1.74-6.9,2.6-9.86,2.6-7.32,0-10.75-3.43-10.75-14.16v-98.6c0-57-39-78.92-95.17-78.92-35.61,0-68.61,9-97.76,26.59l22.31,48.48c20.57-14.18,47.18-21.46,69.45-21.46,15.88,0,35.59,4.3,35.59,21.86,0,16.72-19.29,18.44-54,21.86-34.3,3.46-81.48,15-81.48,70.33,0,46.3,33,71.62,77.65,71.62,25.29,0,54-7.75,69.41-29.61,7.34,19.28,26.2,27.89,47.62,27.89,9,0,22.7-1.73,31.72-6ZM1390.4,538c0,27.86-17.58,40.73-39.89,40.73-18,0-30.43-7.71-30.43-24.85,0-19.73,15.46-23.58,30.88-26.16,16.71-3,30.42-3.87,39.44-15Z"/><path class="cls-1" d="M374.1,334.22h-131V628.44H309V530.38h65.1c68,0,108.78-38.75,108.78-98.08s-41.22-98.08-108.78-98.08M373.29,471H309V393.53h64.29c26.37,0,42.84,12.81,42.84,38.36,0,26-16.08,39.13-42.84,39.13"/><path class="cls-1" d="M674.89,471a49.25,49.25,0,0,0-18.12-3.3c-26,0-47,19.35-47,63.88v96.84H546.35V408.38H609.8v27.19c12-19.35,30.49-30.88,53.16-30.88,6.57,0,17.3,1.65,21.42,3.69Z"/><path class="cls-1" d="M1653.54,471a49.07,49.07,0,0,0-18.11-3.3c-26,0-47,19.35-47,63.88v96.84H1525V408.38h63.44v27.19c12-19.35,30.5-30.88,53.18-30.88,6.6,0,17.31,1.65,21.42,3.69Z"/><path class="cls-1" d="M820.8,398.5c-69.2,0-114.12,46.56-114.12,115.39,0,68.39,44.92,114.55,114.12,114.55,69.66,0,114.15-46.16,114.15-114.55,0-68.83-44.49-115.39-114.15-115.39m0,177.2c-30.47,0-46.94-26-46.94-62.24s16.47-62.21,46.94-62.21c30.92,0,47.39,26,47.39,62.21S851.72,575.7,820.8,575.7"/><path class="cls-1" d="M1873.05,609.68c-12.6,10.6-32.13,18.76-58.2,18.76-26.41,0-47.16-8.16-60.21-27.3-8.94-13-12.21-28-12.21-50V453.48h-32.92V406.26h32.92V333h62.26v73.25h60.24v47.22h-60.24v99.65c0,16.69,9,22.41,21.55,22.41,9.79,0,21.61-3.27,29.72-9.78Z"/><polygon class="cls-1" points="1228.95 628.44 1131.53 478.18 1222.28 386.63 1143.5 386.63 1047.33 489.21 1047.33 308.41 983.03 308.41 983.03 628.44 1047.33 628.44 1047.33 563.06 1086.63 523.41 1150.5 628.44 1228.95 628.44"/><path class="cls-1" d="M1314.93,730.22c-12.08,0-20-6.15-20-17.83V686.13H1307v26.26c0,5.21,2.83,7.66,8,7.66s7.9-2.45,7.9-7.66V686.13h12.08v26.26c0,11.68-8,17.83-20,17.83"/><rect class="cls-1" x="1543.29" y="687.07" width="12.1" height="43.15"/><path class="cls-1" d="M1404.66,713.43l9.7,4.8c-3.39,7.5-10.56,12-20,12-13.49,0-22.64-9.23-22.64-22.64s9.15-22.48,22.64-22.48c8,0,15,3.15,19.64,11.28l-9.54,5.27a10.33,10.33,0,0,0-9.86-6.76c-6.73,0-10.49,5.68-10.49,12.69s3.76,12.86,10.49,12.86c4.26,0,7.89-2.21,10-7"/><path class="cls-1" d="M1482.81,713.43l9.67,4.8c-3.38,7.5-10.56,12-20,12-13.47,0-22.63-9.23-22.63-22.64s9.16-22.48,22.63-22.48c8,0,15,3.15,19.66,11.28l-9.53,5.27c-2-4.64-5.69-6.76-9.89-6.76-6.71,0-10.47,5.68-10.47,12.69s3.76,12.86,10.47,12.86c4.26,0,7.89-2.21,10-7"/><polygon class="cls-1" points="1712.36 730.22 1696.2 702.07 1696.2 730.22 1684.9 730.22 1684.9 687.07 1699.57 687.07 1715.12 714.7 1715.12 687.07 1726.41 687.07 1726.41 730.22 1712.36 730.22"/><path class="cls-1" d="M1004.71,687.07H983v43.15h12V717.45h8.45a32.15,32.15,0,0,0,5.68-.48c7.63-1.42,12.41-6.88,12.41-14.66,0-9.26-6.64-15.24-16.9-15.24m0,20.43h-9.64V697.16h8.45c3.23,0,6.25.8,6.25,5.15,0,3.37-2.13,5.19-5.06,5.19"/><path class="cls-1" d="M1881.87,694.4l-8,5.13a14.64,14.64,0,0,0-11.54-5.28c-3.37,0-6.37,1-6.37,3.73s3.63,3.28,8.82,4.17c9.56,1.66,17.75,4.09,17.75,13.32,0,8.52-7.17,14.75-19.79,14.75-10.53,0-17.29-4.26-21.31-10.79l8.76-4.83c3,5,8.69,6.56,13.25,6.56,3.71,0,7-1.34,7-3.95,0-3.32-4-3.94-10.49-5-9.06-1.42-15.86-4.79-15.86-13.34,0-9.06,7.89-13.69,18-13.69,9.15,0,15.6,3.84,19.79,9.19"/><path class="cls-1" d="M1158.58,685.1c-14.51,0-23,10.17-23,22.48,0,12.47,8.47,22.64,23,22.64s23-10.17,23-22.64c0-12.31-8.43-22.48-23-22.48m0,34.85c-7,0-10.49-5.65-10.49-12.37,0-6.56,3.53-12.23,10.49-12.23s10.63,5.67,10.63,12.23c0,6.72-3.55,12.37-10.63,12.37"/><path class="cls-1" d="M1627.46,685.1c-14.49,0-22.94,10.17-22.94,22.48,0,12.47,8.45,22.64,22.94,22.64s23-10.17,23-22.64c0-12.31-8.46-22.48-23-22.48m0,34.85c-6.94,0-10.5-5.65-10.5-12.37,0-6.56,3.56-12.21,10.5-12.21,7.11,0,10.65,5.65,10.65,12.21,0,6.72-3.54,12.37-10.65,12.37"/><path class="cls-1" d="M1091.46,714c6.06-2.93,8.34-7.34,8.34-12.78,0-8.12-5.67-14.19-16.71-14.19h-22.88v43.15h12.08v-14.1h7.58l7.55,14.1h13.27Zm-9.26-7h-9.91V696.7h9.91c3.26,0,5.45,1.74,5.45,5.13s-2.27,5.19-5.45,5.19"/><polygon class="cls-1" points="1765.83 730.22 1765.83 687.07 1801 687.07 1801 696.92 1777.88 696.92 1777.88 703.38 1798.15 703.38 1798.15 712.24 1777.88 712.24 1777.88 720.53 1801.79 720.53 1801.79 730.22 1765.83 730.22"/><path class="cls-1" d="M1235.14,687.07h-19.49v43.15h19.49c14.83,0,22.7-9,22.7-21.7,0-12.54-7.87-21.45-22.7-21.45m0,33.14h-7.41V697.16h7.41c6.77,0,10.34,4.43,10.34,11.36s-3.57,11.69-10.34,11.69"/><path class="cls-2" d="M752.54,688.43A366,366,0,0,1,630,789.59,361.76,361.76,0,0,1,105.08,466.75,361.74,361.74,0,0,1,662,162.23,362.86,362.86,0,0,1,791.16,306.6l.91,1.9H906l-1.75-4.63a466.8,466.8,0,1,0-28.74,388.36l2.81-5.11H753.54Z"/></g></g></svg>